<svg width="40" height="62" viewBox="0 0 40 62" fill="none" xmlns="http://www.w3.org/2000/svg">
<path d="M29.8359 0.280273C30.5489 0.2805 31.126 0.857272 31.126 1.57031V33.2061C30.7559 33.1607 30.3794 33.1348 29.9971 33.1348C24.9224 33.135 20.8087 37.2495 20.8086 42.3242V45.0879C19.5984 46.1855 18.8381 47.7707 18.8379 49.5332V51.8896H1.4502C0.737138 51.8896 0.16029 51.3127 0.160156 50.5996V1.57031C0.160156 0.857167 0.737036 0.280297 1.4502 0.280273H29.8359ZM20.8037 28.665C20.0908 28.6651 19.5139 29.2422 19.5137 29.9551C19.5137 30.6682 20.0906 31.246 20.8037 31.2461H24.6748C25.3879 31.246 25.9648 30.6682 25.9648 29.9551C25.9646 29.2422 25.3877 28.6652 24.6748 28.665H20.8037ZM6.61133 5.44141C5.89817 5.44141 5.32129 6.01827 5.32129 6.73145V24.7949C5.32148 25.5079 5.89827 26.085 6.61133 26.085H24.6748C25.3877 26.0848 25.9646 25.5079 25.9648 24.7949V6.73145C25.9648 6.01837 25.3879 5.44154 24.6748 5.44141H6.61133ZM14.3525 23.5039H7.90137V17.0527H14.3525V23.5039ZM23.3848 23.5039H16.9336V17.0527H23.3848V23.5039ZM14.3525 14.4727H7.90137V8.02148H14.3525V14.4727ZM23.3848 14.4727H16.9336V8.02148H23.3848V14.4727Z" fill="#F0F0F0"/>
<path d="M37.6635 45.9831V42.5476C37.6076 38.4475 34.258 35.1779 30.1142 35.1779C25.9696 35.1779 22.6207 38.4475 22.6207 42.492V45.9275C21.5988 45.9275 20.8038 46.7034 20.8038 47.7009V59.9466C20.8038 60.9441 21.5988 61.72 22.6207 61.72H37.6647C38.6866 61.72 39.4816 60.9441 39.4816 59.9466L39.4805 47.7554C39.4235 46.7579 38.6285 45.9831 37.6635 45.9831ZM30.8948 57.1199H29.3675C28.8666 57.1199 28.4842 56.6812 28.5658 56.1989L28.9225 54.073C28.4093 53.6975 28.1141 53.0395 28.1991 52.3378C28.293 51.564 28.8834 50.9103 29.6537 50.7063C30.9418 50.3636 32.1582 51.36 32.1582 52.5779C32.1582 53.1868 31.8742 53.7412 31.4203 54.0741L31.7009 56.2283C31.7624 56.7009 31.3834 57.1199 30.8948 57.1199ZM35.2229 45.9831H25.0047V42.5476C25.0047 39.8324 27.2756 37.5602 30.1145 37.5602C32.8963 37.5602 35.2243 39.7766 35.2243 42.5476L35.2229 45.9831Z" fill="#FF4D4F"/>
<mask id="mask0_3335_99973" style="mask-type:alpha" maskUnits="userSpaceOnUse" x="0" y="0" width="31" height="52">
<path d="M29.6733 0.307861H1.44316C0.73388 0.307861 0.159973 0.883049 0.159973 1.59387V50.4622C0.159973 51.1731 0.733899 51.7483 1.44316 51.7483H29.6733C30.3826 51.7483 30.9565 51.1731 30.9565 50.4622V1.59387C30.9565 0.883029 30.3826 0.307861 29.6733 0.307861ZM24.5406 31.1721H20.691C19.9817 31.1721 19.4078 30.5969 19.4078 29.8861C19.4078 29.1753 19.9817 28.6001 20.691 28.6001H24.5406C25.2499 28.6001 25.8238 29.1753 25.8238 29.8861C25.8238 30.5969 25.2498 31.1721 24.5406 31.1721ZM25.8238 24.742C25.8238 25.4529 25.2498 26.0281 24.5406 26.0281H6.57592C5.86664 26.0281 5.29273 25.4529 5.29273 24.742V6.73791C5.29273 6.02707 5.86666 5.4519 6.57592 5.4519H24.5406C25.2499 5.4519 25.8238 6.02709 25.8238 6.73791V24.742ZM16.8414 17.026H23.2574V23.456H16.8414V17.026ZM7.85911 17.026H14.2751V23.456H7.85911V17.026ZM7.85911 8.02392H14.2751V14.454H7.85911V8.02392ZM16.8414 8.02392H23.2574V14.454H16.8414V8.02392Z" fill="#ADC6FF"/>
</mask>
<g mask="url(#mask0_3335_99973)">
<rect x="6.25171" y="6.73798" width="18.6133" height="18.2749" fill="#D9D9D9"/>
</g>
</svg>
