<svg width="62" height="96" viewBox="0 0 62 96" fill="none" xmlns="http://www.w3.org/2000/svg">
<path d="M46.3682 0C47.4823 8.80846e-05 48.3836 0.901508 48.3838 2.01562V51.4434C47.8061 51.3726 47.2179 51.336 46.6211 51.3359C38.6917 51.3359 32.2638 57.764 32.2637 65.6934V68.3418C30.4268 69.3675 29.1846 71.3307 29.1846 73.584V80.6396H2.01562C0.901491 80.6394 1.19596e-05 79.7382 0 78.624V2.01562C0.000202258 0.901609 0.901579 0.000202259 2.01562 0H46.3682ZM32.2559 44.3516C31.1416 44.3516 30.2402 45.2539 30.2402 46.3682C30.2403 47.4824 31.1416 48.3837 32.2559 48.3838H38.3037C39.418 48.3838 40.3202 47.4824 40.3203 46.3682C40.3203 45.2538 39.4181 44.3516 38.3037 44.3516H32.2559ZM10.0801 8.06445C8.96576 8.06445 8.06445 8.96573 8.06445 10.0801V38.3037C8.06445 39.418 8.96573 40.3203 10.0801 40.3203H38.3037C39.418 40.3203 40.3203 39.4181 40.3203 38.3037V10.0801C40.3203 8.96576 39.4181 8.06445 38.3037 8.06445H10.0801ZM22.1758 36.2881H12.0957V26.208H22.1758V36.2881ZM36.2881 36.2881H26.208V26.208H36.2881V36.2881ZM22.1758 22.1758H12.0957V12.0957H22.1758V22.1758ZM36.2881 22.1758H26.208V12.0957H36.2881V22.1758Z" fill="#D6E4FF"/>
<path d="M58.5993 71.4111V66.0432C58.5119 59.6367 53.2781 54.528 46.8035 54.528C40.3275 54.528 35.0949 59.6367 35.0949 65.9563V71.3243C33.4981 71.3243 32.256 72.5366 32.256 74.0952V93.2291C32.256 94.7876 33.4981 96 35.0949 96H58.6011C60.1978 96 61.44 94.7876 61.44 93.2291L61.4382 74.1803C61.3491 72.6218 60.107 71.4111 58.5993 71.4111ZM48.0231 88.8124H45.6367C44.854 88.8124 44.2566 88.1269 44.3841 87.3732L44.9414 84.0515C44.1395 83.4649 43.6783 82.4367 43.8111 81.3403C43.9578 80.1313 44.8802 79.1099 46.0839 78.7911C48.0965 78.2556 49.9972 79.8125 49.9972 81.7154C49.9972 82.6669 49.5535 83.5332 48.8442 84.0533L49.2827 87.4193C49.3788 88.1576 48.7865 88.8124 48.0231 88.8124ZM54.7857 71.4111H38.8199V66.0432C38.8199 61.8006 42.3681 58.2503 46.8039 58.2503C51.1505 58.2503 54.788 61.7135 54.788 66.0432L54.7857 71.4111Z" fill="#FF4D4F"/>
<mask id="mask0_3335_85011" style="mask-type:alpha" maskUnits="userSpaceOnUse" x="0" y="0" width="49" height="81">
<path d="M46.1146 0.0434875H2.00498C0.896729 0.0434875 0 0.942218 0 2.05288V78.4097C0 79.5204 0.896759 80.4191 2.00498 80.4191H46.1146C47.2229 80.4191 48.1196 79.5204 48.1196 78.4097V2.05288C48.1196 0.942187 47.2228 0.0434875 46.1146 0.0434875ZM38.0947 48.2689H32.0797C30.9715 48.2689 30.0748 47.3701 30.0748 46.2595C30.0748 45.1488 30.9715 44.2501 32.0797 44.2501H38.0947C39.2029 44.2501 40.0997 45.1488 40.0997 46.2595C40.0997 47.3701 39.2029 48.2689 38.0947 48.2689ZM40.0997 38.2219C40.0997 39.3326 39.2029 40.2313 38.0947 40.2313H10.0249C8.91666 40.2313 8.01993 39.3326 8.01993 38.2219V10.0904C8.01993 8.97975 8.91669 8.08105 10.0249 8.08105H38.0947C39.2029 8.08105 40.0997 8.97978 40.0997 10.0904V38.2219ZM26.0648 26.1656H36.0897V36.2125H26.0648V26.1656ZM12.0299 26.1656H22.0548V36.2125H12.0299V26.1656ZM12.0299 12.0998H22.0548V22.1468H12.0299V12.0998ZM26.0648 12.0998H36.0897V22.1468H26.0648V12.0998Z" fill="#ADC6FF"/>
</mask>
<g mask="url(#mask0_3335_85011)">
<rect x="9.51831" y="10.0905" width="29.0833" height="28.5545" fill="#ADC6FF"/>
</g>
</svg>
