<svg width="208" height="32" viewBox="0 0 208 32" fill="none" xmlns="http://www.w3.org/2000/svg">
<path fill-rule="evenodd" clip-rule="evenodd" d="M12.8228 0.109999C15.8772 -0.570814 18.0927 2.02866 18.0927 4.59881V27.4012C18.0927 29.9713 15.8772 32.5708 12.8228 31.89C5.48374 30.2547 0 23.7626 0 16C0 8.23742 5.48374 1.74526 12.8228 0.109999ZM21.8643 9.96226C22.1727 9.65691 22.591 9.48538 23.0271 9.48538C23.4633 9.48538 23.8815 9.65691 24.19 9.96226L29.1244 14.8485C29.4327 15.1539 29.6059 15.5681 29.6059 16C29.6059 16.4319 29.4327 16.8461 29.1244 17.1515L24.19 22.0377C23.8798 22.3344 23.4643 22.4986 23.033 22.4949C22.6018 22.4912 22.1892 22.3199 21.8843 22.0179C21.5793 21.7159 21.4063 21.3074 21.4026 20.8804C21.3989 20.4533 21.5646 20.0419 21.8643 19.7347L23.991 17.6287H9.86877C9.43254 17.6287 9.01418 17.4571 8.70572 17.1517C8.39726 16.8462 8.22397 16.432 8.22397 16C8.22397 15.568 8.39726 15.1538 8.70572 14.8483C9.01418 14.5429 9.43254 14.3713 9.86877 14.3713H23.991L21.8643 12.2653C21.5559 11.9599 21.3827 11.5457 21.3827 11.1138C21.3827 10.6819 21.5559 10.2677 21.8643 9.96226Z" fill="#1D39C4"/>
<path d="M39.026 6.80859H45.4841C46.5643 6.80859 47.606 6.97713 48.609 7.3142C49.6121 7.63596 50.4994 8.13391 51.271 8.80805C52.0425 9.4822 52.6598 10.3325 53.1227 11.3591C53.5857 12.3703 53.8172 13.5654 53.8172 14.9443C53.8172 16.3386 53.5471 17.549 53.007 18.5755C52.4823 19.5868 51.7956 20.4294 50.9469 21.1036C50.1136 21.7624 49.18 22.2604 48.1461 22.5974C47.1276 22.9192 46.1245 23.0801 45.1369 23.0801H39.026V6.80859ZM44.1184 20.4601C45.0289 20.4601 45.8853 20.3605 46.6878 20.1613C47.5057 19.9468 48.2155 19.6251 48.8173 19.1961C49.4192 18.7517 49.8898 18.1848 50.2293 17.4954C50.5843 16.7906 50.7617 15.9402 50.7617 14.9443C50.7617 13.9638 50.6074 13.1211 50.2988 12.4163C49.9901 11.7115 49.5581 11.1446 49.0025 10.7156C48.4624 10.2713 47.8143 9.94951 47.0581 9.75033C46.3174 9.53583 45.4995 9.42858 44.6045 9.42858H41.9426V20.4601H44.1184Z" fill="black" fill-opacity="0.85"/>
<path d="M66.4739 23.0801H63.8351V21.3104H63.7888C63.5265 21.862 63.1252 22.3446 62.5851 22.7583C62.045 23.1567 61.312 23.3559 60.3861 23.3559C59.6454 23.3559 59.0127 23.2409 58.4881 23.0111C57.9788 22.766 57.5622 22.4442 57.2381 22.0459C56.914 21.6322 56.6826 21.1649 56.5437 20.6439C56.4048 20.123 56.3353 19.5791 56.3353 19.0122V12.0486H59.113V17.6333C59.113 17.9397 59.1285 18.2844 59.1593 18.6675C59.1902 19.0352 59.2673 19.3876 59.3908 19.7247C59.5297 20.0464 59.7303 20.3222 59.9926 20.552C60.2704 20.7665 60.6562 20.8738 61.15 20.8738C61.6129 20.8738 61.9987 20.7972 62.3074 20.6439C62.6314 20.4907 62.8938 20.2839 63.0944 20.0234C63.3104 19.763 63.4647 19.4642 63.5573 19.1271C63.6499 18.79 63.6962 18.4376 63.6962 18.0699V12.0486H66.4739V23.0801Z" fill="black" fill-opacity="0.85"/>
<path d="M69.5113 12.0486H72.1501V13.7722H72.1964C72.4433 13.2513 72.8368 12.7917 73.3769 12.3933C73.9324 11.9796 74.6731 11.7728 75.599 11.7728C77.3428 11.7728 78.5001 12.4546 79.0711 13.8182C79.4723 13.1134 79.9739 12.6001 80.5757 12.2784C81.1775 11.9413 81.8951 11.7728 82.7284 11.7728C83.4691 11.7728 84.0941 11.8953 84.6033 12.1405C85.1126 12.3856 85.5215 12.7227 85.8301 13.1517C86.1542 13.5807 86.3857 14.0863 86.5246 14.6685C86.6635 15.2354 86.7329 15.8483 86.7329 16.5071V23.0801H83.9552V16.8289C83.9552 16.4918 83.9244 16.1701 83.8626 15.8636C83.8009 15.5419 83.6929 15.2661 83.5386 15.0363C83.3842 14.7911 83.1759 14.5996 82.9136 14.4617C82.6512 14.3238 82.3117 14.2549 81.8951 14.2549C81.463 14.2549 81.0927 14.3391 80.784 14.5077C80.4908 14.6609 80.2439 14.8754 80.0433 15.1512C79.8581 15.4116 79.7192 15.7181 79.6267 16.0705C79.5495 16.4075 79.5109 16.7523 79.5109 17.1047V23.0801H76.7332V16.5071C76.7332 15.8177 76.5866 15.2737 76.2934 14.8754C76.0002 14.4617 75.5141 14.2549 74.8352 14.2549C74.3722 14.2549 73.9787 14.3315 73.6546 14.4847C73.346 14.6379 73.0837 14.8447 72.8676 15.1052C72.667 15.3657 72.5204 15.6644 72.4278 16.0015C72.3352 16.3386 72.2889 16.691 72.2889 17.0587V23.0801H69.5113V12.0486Z" fill="black" fill-opacity="0.85"/>
<path d="M89.6522 12.0486H92.291V13.7722H92.3373C92.5842 13.2513 92.9777 12.7917 93.5178 12.3933C94.0733 11.9796 94.814 11.7728 95.7399 11.7728C97.4837 11.7728 98.6411 12.4546 99.212 13.8182C99.6133 13.1134 100.115 12.6001 100.717 12.2784C101.318 11.9413 102.036 11.7728 102.869 11.7728C103.61 11.7728 104.235 11.8953 104.744 12.1405C105.253 12.3856 105.662 12.7227 105.971 13.1517C106.295 13.5807 106.527 14.0863 106.665 14.6685C106.804 15.2354 106.874 15.8483 106.874 16.5071V23.0801H104.096V16.8289C104.096 16.4918 104.065 16.1701 104.004 15.8636C103.942 15.5419 103.834 15.2661 103.679 15.0363C103.525 14.7911 103.317 14.5996 103.054 14.4617C102.792 14.3238 102.453 14.2549 102.036 14.2549C101.604 14.2549 101.234 14.3391 100.925 14.5077C100.632 14.6609 100.385 14.8754 100.184 15.1512C99.999 15.4116 99.8602 15.7181 99.7676 16.0705C99.6904 16.4075 99.6518 16.7523 99.6518 17.1047V23.0801H96.8742V16.5071C96.8742 15.8177 96.7276 15.2737 96.4344 14.8754C96.1412 14.4617 95.6551 14.2549 94.9761 14.2549C94.5131 14.2549 94.1196 14.3315 93.7956 14.4847C93.4869 14.6379 93.2246 14.8447 93.0085 15.1052C92.8079 15.3657 92.6613 15.6644 92.5687 16.0015C92.4762 16.3386 92.4299 16.691 92.4299 17.0587V23.0801H89.6522V12.0486Z" fill="black" fill-opacity="0.85"/>
<path d="M108.404 12.0486H111.46L114.561 19.7017H114.608L117.385 12.0486H120.279L115.024 25.4473C114.824 25.9682 114.6 26.4202 114.353 26.8032C114.122 27.2016 113.844 27.531 113.52 27.7914C113.196 28.0672 112.81 28.2664 112.362 28.389C111.93 28.5269 111.406 28.5958 110.788 28.5958C110.063 28.5958 109.353 28.5039 108.659 28.32L109.006 25.8379C109.222 25.9146 109.446 25.9758 109.677 26.0218C109.924 26.0831 110.171 26.1137 110.418 26.1137C110.758 26.1137 111.043 26.0831 111.275 26.0218C111.506 25.9605 111.699 25.8609 111.853 25.723C112.023 25.6005 112.162 25.4319 112.27 25.2174C112.378 25.0182 112.494 24.7731 112.617 24.482L113.149 23.172L108.404 12.0486Z" fill="black" fill-opacity="0.85"/>
<path d="M129.016 6.80859H131.932V20.4601H138.9V23.0801H129.016V6.80859Z" fill="black" fill-opacity="0.85"/>
<path d="M140.209 17.5643C140.209 16.691 140.363 15.9019 140.672 15.1971C140.996 14.477 141.428 13.8642 141.968 13.3586C142.508 12.8529 143.149 12.4622 143.889 12.1865C144.63 11.9107 145.417 11.7728 146.25 11.7728C147.084 11.7728 147.871 11.9107 148.611 12.1865C149.352 12.4622 149.993 12.8529 150.533 13.3586C151.073 13.8642 151.497 14.477 151.806 15.1971C152.13 15.9019 152.292 16.691 152.292 17.5643C152.292 18.4376 152.13 19.2344 151.806 19.9545C151.497 20.6593 151.073 21.2645 150.533 21.7701C149.993 22.2757 149.352 22.6664 148.611 22.9422C147.871 23.218 147.084 23.3559 146.25 23.3559C145.417 23.3559 144.63 23.218 143.889 22.9422C143.149 22.6664 142.508 22.2757 141.968 21.7701C141.428 21.2645 140.996 20.6593 140.672 19.9545C140.363 19.2344 140.209 18.4376 140.209 17.5643ZM142.987 17.5643C142.987 17.9933 143.056 18.407 143.195 18.8054C143.349 19.2037 143.565 19.5561 143.843 19.8625C144.136 20.169 144.483 20.4141 144.885 20.598C145.286 20.7818 145.741 20.8738 146.25 20.8738C146.76 20.8738 147.215 20.7818 147.616 20.598C148.017 20.4141 148.357 20.169 148.635 19.8625C148.928 19.5561 149.144 19.2037 149.283 18.8054C149.437 18.407 149.514 17.9933 149.514 17.5643C149.514 17.1353 149.437 16.7216 149.283 16.3233C149.144 15.9249 148.928 15.5725 148.635 15.2661C148.357 14.9597 148.017 14.7145 147.616 14.5307C147.215 14.3468 146.76 14.2549 146.25 14.2549C145.741 14.2549 145.286 14.3468 144.885 14.5307C144.483 14.7145 144.136 14.9597 143.843 15.2661C143.565 15.5725 143.349 15.9249 143.195 16.3233C143.056 16.7216 142.987 17.1353 142.987 17.5643Z" fill="black" fill-opacity="0.85"/>
<path d="M166.327 12.0486V22.0918C166.327 23.0877 166.204 23.984 165.957 24.7808C165.71 25.5928 165.324 26.2746 164.8 26.8262C164.29 27.3931 163.642 27.8298 162.855 28.1362C162.068 28.4426 161.135 28.5958 160.054 28.5958C159.02 28.5958 158.041 28.4656 157.115 28.2051C156.189 27.9447 155.332 27.4697 154.545 26.7802L156.212 24.528C156.767 25.0336 157.346 25.4243 157.948 25.7001C158.55 25.9758 159.244 26.1137 160.031 26.1137C160.695 26.1137 161.25 26.0218 161.698 25.8379C162.161 25.6541 162.523 25.4013 162.786 25.0795C163.063 24.7578 163.256 24.3671 163.364 23.9074C163.488 23.4631 163.55 22.9652 163.55 22.4136V21.6092H163.503C163.102 22.1455 162.57 22.5515 161.906 22.8273C161.243 23.0877 160.564 23.218 159.869 23.218C159.036 23.218 158.28 23.0724 157.601 22.7813C156.922 22.4749 156.335 22.0688 155.842 21.5632C155.363 21.0576 154.993 20.4601 154.73 19.7706C154.468 19.0811 154.337 18.3457 154.337 17.5643C154.337 16.7523 154.46 15.9939 154.707 15.2891C154.954 14.5843 155.317 13.9714 155.795 13.4505C156.274 12.9295 156.845 12.5235 157.508 12.2324C158.187 11.926 158.959 11.7728 159.823 11.7728C160.61 11.7728 161.343 11.926 162.022 12.2324C162.701 12.5388 163.241 13.0291 163.642 13.7033H163.688V12.0486H166.327ZM160.402 14.2549C159.908 14.2549 159.46 14.3391 159.059 14.5077C158.658 14.6609 158.311 14.883 158.017 15.1742C157.74 15.4499 157.516 15.7947 157.346 16.2084C157.192 16.6067 157.115 17.051 157.115 17.5413C157.115 17.9857 157.192 18.3993 157.346 18.7824C157.516 19.1654 157.747 19.5025 158.041 19.7936C158.334 20.0847 158.681 20.3145 159.082 20.4831C159.483 20.6516 159.915 20.7359 160.378 20.7359C160.888 20.7359 161.343 20.6516 161.744 20.4831C162.161 20.3145 162.508 20.0924 162.786 19.8166C163.079 19.5255 163.303 19.1807 163.457 18.7824C163.611 18.384 163.688 17.955 163.688 17.4954C163.688 16.5301 163.395 15.7487 162.809 15.1512C162.222 14.5536 161.42 14.2549 160.402 14.2549Z" fill="black" fill-opacity="0.85"/>
<path d="M168.917 17.5643C168.917 16.691 169.071 15.9019 169.38 15.1971C169.704 14.477 170.136 13.8642 170.676 13.3586C171.216 12.8529 171.857 12.4622 172.598 12.1865C173.338 11.9107 174.125 11.7728 174.959 11.7728C175.792 11.7728 176.579 11.9107 177.32 12.1865C178.06 12.4622 178.701 12.8529 179.241 13.3586C179.781 13.8642 180.205 14.477 180.514 15.1971C180.838 15.9019 181 16.691 181 17.5643C181 18.4376 180.838 19.2344 180.514 19.9545C180.205 20.6593 179.781 21.2645 179.241 21.7701C178.701 22.2757 178.06 22.6664 177.32 22.9422C176.579 23.218 175.792 23.3559 174.959 23.3559C174.125 23.3559 173.338 23.218 172.598 22.9422C171.857 22.6664 171.216 22.2757 170.676 21.7701C170.136 21.2645 169.704 20.6593 169.38 19.9545C169.071 19.2344 168.917 18.4376 168.917 17.5643ZM171.695 17.5643C171.695 17.9933 171.764 18.407 171.903 18.8054C172.057 19.2037 172.273 19.5561 172.551 19.8625C172.844 20.169 173.192 20.4141 173.593 20.598C173.994 20.7818 174.449 20.8738 174.959 20.8738C175.468 20.8738 175.923 20.7818 176.324 20.598C176.725 20.4141 177.065 20.169 177.343 19.8625C177.636 19.5561 177.852 19.2037 177.991 18.8054C178.145 18.407 178.222 17.9933 178.222 17.5643C178.222 17.1353 178.145 16.7216 177.991 16.3233C177.852 15.9249 177.636 15.5725 177.343 15.2661C177.065 14.9597 176.725 14.7145 176.324 14.5307C175.923 14.3468 175.468 14.2549 174.959 14.2549C174.449 14.2549 173.994 14.3468 173.593 14.5307C173.192 14.7145 172.844 14.9597 172.551 15.2661C172.273 15.5725 172.057 15.9249 171.903 16.3233C171.764 16.7216 171.695 17.1353 171.695 17.5643Z" fill="black" fill-opacity="0.85"/>
</svg>
